<?xml version="1.0" standalone="no"?>
<!DOCTYPE svg PUBLIC "-//W3C//DTD SVG 20010904//EN"
 "http://www.w3.org/TR/2001/REC-SVG-20010904/DTD/svg10.dtd">
<svg version="1.0" xmlns="http://www.w3.org/2000/svg"
 width="198.000000pt" height="198.000000pt" viewBox="0 0 198.000000 198.000000"
 preserveAspectRatio="xMidYMid meet">
<metadata>
Created by potrace 1.11, written by Peter Selinger 2001-2013
</metadata>
<g transform="translate(0.000000,198.000000) scale(0.100000,-0.100000)"
fill="#000000" stroke="none">
<path d="M940 1876 c0 -51 -1 -53 -25 -48 -22 4 -25 1 -25 -22 0 -30 -7 -33
-26 -8 -13 16 -14 16 -7 -2 4 -13 3 -17 -5 -12 -7 4 -12 3 -12 -2 0 -5 -10 -8
-22 -8 -14 1 -23 -5 -23 -14 -1 -30 -14 -38 -55 -30 -24 4 -40 3 -40 -2 0 -6
-7 -8 -15 -4 -9 3 -19 -3 -25 -14 -7 -14 -7 -20 0 -20 5 0 10 7 10 15 0 8 6
12 14 9 8 -3 12 -12 10 -19 -4 -9 -25 -14 -62 -14 -31 -1 -65 -1 -74 -2 -17 0
-34 -29 -17 -29 6 0 7 -5 3 -11 -5 -8 -10 -6 -16 5 -5 9 -7 20 -4 24 3 5 -1 9
-9 9 -10 0 -11 -5 -4 -18 17 -32 9 -35 -11 -4 -11 17 -20 24 -20 17 0 -8 -5
-10 -12 -6 -8 4 -10 3 -5 -2 5 -5 13 -9 18 -9 21 0 7 -20 -14 -20 -18 -1 -24
4 -23 19 1 18 -6 21 -46 23 l-46 2 -4 -49 c-3 -42 0 -50 17 -54 10 -3 23 0 27
7 4 7 5 -3 2 -21 -6 -31 -5 -33 19 -28 31 5 44 -9 27 -29 -10 -12 -9 -15 6
-16 28 -1 77 -6 89 -7 6 -1 10 -51 10 -129 0 -113 -2 -128 -17 -125 -9 1 -20
-3 -24 -9 -4 -7 -3 -9 4 -6 14 9 43 -3 36 -14 -3 -5 -16 -9 -30 -9 -21 0 -24
-4 -20 -25 4 -22 1 -25 -25 -25 -18 0 -29 -5 -28 -12 4 -31 -3 -35 -57 -37
-31 0 -60 -3 -65 -7 -5 -3 -12 2 -15 10 -3 9 -14 16 -23 17 -13 0 -12 2 3 8
27 10 9 18 -39 17 -36 -1 -40 -3 -42 -30 -1 -16 -4 -35 -7 -43 -6 -15 32 -35
48 -25 5 3 6 0 2 -7 -14 -23 3 -48 29 -43 15 2 25 0 25 -7 0 -7 -4 -10 -9 -7
-4 3 -17 -1 -27 -9 -10 -8 -14 -15 -7 -15 6 0 15 5 18 10 4 6 11 7 17 4 6 -4
5 -10 -3 -16 -11 -7 -11 -9 1 -7 8 1 36 1 61 0 l46 -1 -2 -132 c-2 -140 -8
-170 -31 -161 -8 3 -15 -1 -15 -11 -4 -44 0 -41 -51 -45 -10 0 -18 -6 -18 -12
0 -5 4 -8 8 -5 4 2 8 -4 8 -14 0 -14 -4 -16 -16 -10 -9 5 -21 5 -27 2 -7 -4
-31 -7 -55 -6 -65 3 -68 3 -68 15 0 5 5 7 10 4 6 -3 10 1 10 9 0 12 -11 16
-50 16 l-50 0 0 -49 c0 -44 3 -50 23 -53 16 -2 22 -9 21 -25 -1 -22 11 -28 44
-24 7 1 12 -2 11 -6 -5 -31 3 -39 34 -37 67 6 66 7 66 -144 0 -75 0 -152 0
-169 l1 -33 740 0 740 0 0 174 0 174 50 -2 c33 -1 50 3 51 12 3 26 4 31 13 39
5 5 6 3 2 -4 -4 -7 -4 -13 1 -13 18 0 34 18 36 38 1 16 5 19 18 11 27 -14 35
-11 13 6 -16 13 -16 14 -1 9 15 -5 17 1 17 45 l0 51 -48 0 c-37 0 -49 -4 -49
-15 0 -10 6 -14 16 -10 12 5 13 3 4 -6 -7 -7 -40 -11 -80 -11 -94 0 -100 1
-86 10 18 11 -1 35 -29 37 -18 1 -24 9 -29 36 -4 19 -7 28 -8 22 0 -7 -8 -13
-16 -13 -17 0 -17 -3 -19 173 l-2 127 25 1 c14 1 40 1 58 1 22 1 30 5 26 14
-3 8 -10 11 -17 7 -6 -4 -5 1 3 10 15 19 41 23 41 6 0 -5 -4 -7 -10 -4 -6 3
-7 -1 -4 -9 3 -9 9 -16 13 -16 8 0 8 3 12 55 1 22 7 31 20 31 17 0 17 -2 2
-18 -9 -10 -14 -18 -12 -19 2 0 12 -2 22 -4 9 -2 17 1 17 6 0 5 -5 9 -11 9 -8
0 -8 4 -1 13 6 7 11 35 10 63 l0 50 -44 0 c-42 0 -48 -5 -45 -33 1 -9 -16 -13
-59 -13 -55 0 -60 2 -51 18 8 14 5 18 -12 19 -17 2 -19 0 -7 -7 11 -7 11 -10
2 -10 -7 0 -10 -4 -7 -10 3 -5 1 -10 -5 -10 -6 0 -10 6 -9 13 4 31 -2 38 -28
35 -18 -2 -27 2 -25 10 1 6 3 17 5 24 1 6 -7 13 -18 15 -43 8 -48 12 -35 28 7
8 8 15 4 15 -10 0 -13 249 -4 251 7 2 59 7 90 8 14 1 21 5 15 9 -16 11 -15 41
1 35 8 -3 11 -10 8 -17 -3 -6 3 0 14 13 14 17 25 22 43 17 19 -5 18 -3 -5 8
-21 9 -24 14 -13 19 8 3 19 1 24 -4 6 -6 10 7 12 33 1 23 4 45 7 49 2 4 0 10
-6 14 -6 4 -8 11 -5 16 4 5 -3 5 -17 0 -14 -5 -31 -5 -40 0 -13 7 -19 2 -30
-21 -14 -32 -23 -37 -34 -19 -4 8 -9 7 -15 -2 -12 -20 -22 -3 -11 18 9 16 7
19 -11 20 -171 8 -180 9 -183 29 -3 18 -2 18 10 2 12 -17 14 -16 32 4 16 19
16 20 2 9 -13 -10 -22 -10 -31 -3 -7 6 -38 12 -69 14 -31 2 -54 6 -52 10 2 3
-4 9 -13 11 -10 2 -8 3 5 2 14 -1 22 3 22 13 0 8 -3 12 -7 9 -3 -4 -12 -2 -20
4 -10 9 -13 8 -13 0 0 -7 -5 -9 -12 -4 -7 4 -21 6 -30 5 -13 -2 -18 4 -18 22
0 21 -5 26 -25 26 -27 0 -28 4 -25 63 l2 37 -51 0 -51 0 0 -54z m-110 -121 c7
-8 10 -15 6 -15 -3 0 -8 0 -11 0 -3 0 -5 3 -4 6 0 4 -5 11 -13 15 -8 5 -9 9
-2 9 6 0 17 -7 24 -15z m630 -96 c0 8 3 11 6 8 9 -9 -16 -38 -27 -32 -4 3 -5
13 -2 21 5 13 7 13 14 2 7 -11 9 -10 9 1z m110 -13 c0 -3 -4 -8 -10 -11 -5 -3
-10 -1 -10 4 0 6 5 11 10 11 6 0 10 -2 10 -4z m175 -535 c3 -5 2 -12 -3 -15
-5 -3 -9 1 -9 9 0 17 3 19 12 6z"/>
<path d="M350 1566 c0 -2 7 -7 16 -10 8 -3 12 -2 9 4 -6 10 -25 14 -25 6z"/>
<path d="M403 1513 c-3 -8 -3 -17 1 -20 3 -4 6 1 6 11 0 9 4 15 9 11 5 -3 12
-2 15 3 3 5 -2 9 -10 9 -9 0 -18 -7 -21 -14z"/>
<path d="M398 1133 c9 -3 10 -9 3 -17 -7 -8 -4 -12 9 -13 11 -1 22 2 25 8 4 5
-2 6 -12 2 -15 -6 -16 -4 -6 8 10 12 8 15 -10 16 -12 0 -16 -1 -9 -4z"/>
<path d="M207 1016 c-6 -14 1 -26 14 -26 4 0 7 9 6 20 -1 23 -12 26 -20 6z"/>
<path d="M360 680 c-9 -6 -10 -10 -3 -10 6 0 15 5 18 10 8 12 4 12 -15 0z"/>
<path d="M1709 598 c-1 -2 -3 -13 -4 -25 -1 -14 2 -20 11 -16 16 6 18 29 4 38
-5 3 -11 5 -11 3z"/>
<path d="M253 577 c0 -8 6 -14 13 -14 7 0 10 6 7 14 -3 7 -8 13 -12 13 -4 0
-8 -6 -8 -13z"/>
<path d="M54 468 c-4 -5 -3 -12 0 -15 3 -4 6 0 6 8 0 11 2 12 9 1 7 -11 9 -11
14 0 6 16 -20 21 -29 6z"/>
<path d="M103 415 c0 -8 4 -12 9 -9 5 3 6 10 3 15 -9 13 -12 11 -12 -6z"/>
<path d="M1866 413 c-6 -14 -5 -15 5 -6 7 7 10 15 7 18 -3 3 -9 -2 -12 -12z"/>
</g>
</svg>
